<?xml version="1.0" encoding="UTF-8" standalone="no"?>
<!-- Created with Inkscape (http://www.inkscape.org/) -->

<svg
   xmlns:dc="http://purl.org/dc/elements/1.1/"
   xmlns:cc="http://creativecommons.org/ns#"
   xmlns:rdf="http://www.w3.org/1999/02/22-rdf-syntax-ns#"
   xmlns:svg="http://www.w3.org/2000/svg"
   xmlns="http://www.w3.org/2000/svg"
   xmlns:sodipodi="http://sodipodi.sourceforge.net/DTD/sodipodi-0.dtd"
   xmlns:inkscape="http://www.inkscape.org/namespaces/inkscape"
   width="190"
   height="200"
   viewBox="0 0 50.270862 52.9167"
   version="1.1"
   id="svg8"
   inkscape:version="0.92.3 (2405546, 2018-03-11)"
   sodipodi:docname="constantsdefinition.svg">
  <title
     id="title815">Coefficient and Constant Definition</title>
  <defs
     id="defs2" />
  <sodipodi:namedview
     id="base"
     pagecolor="#ffffff"
     bordercolor="#666666"
     borderopacity="1.0"
     inkscape:pageopacity="0.0"
     inkscape:pageshadow="2"
     inkscape:zoom="0.98994949"
     inkscape:cx="-87.142857"
     inkscape:cy="236.75119"
     inkscape:document-units="px"
     inkscape:current-layer="layer1"
     showgrid="false"
     inkscape:window-width="1920"
     inkscape:window-height="1137"
     inkscape:window-x="1912"
     inkscape:window-y="-8"
     inkscape:window-maximized="1"
     units="px"
     inkscape:snap-global="false" />
  <metadata
     id="metadata5">
    <rdf:RDF>
      <cc:Work
         rdf:about="">
        <dc:format>image/svg+xml</dc:format>
        <dc:type
           rdf:resource="http://purl.org/dc/dcmitype/StillImage" />
        <dc:title>Coefficient and Constant Definition</dc:title>
        <dc:creator>
          <cc:Agent>
            <dc:title>GreeneMath.com</dc:title>
          </cc:Agent>
        </dc:creator>
        <dc:contributor>
          <cc:Agent>
            <dc:title>John Greene</dc:title>
          </cc:Agent>
        </dc:contributor>
        <dc:description>Shows how a coefficient and constant are defined.</dc:description>
      </cc:Work>
    </rdf:RDF>
  </metadata>
  <g
     inkscape:label="Layer 1"
     inkscape:groupmode="layer"
     id="layer1"
     transform="translate(0,-244.08298)">
    <text
       xml:space="preserve"
       style="font-style:normal;font-variant:normal;font-weight:bold;font-stretch:normal;font-size:7.05555725px;line-height:1.25;font-family:monospace;-inkscape-font-specification:'monospace Bold';letter-spacing:0px;word-spacing:0px;fill:#000000;fill-opacity:1;stroke:none;stroke-width:0.26458332"
       x="-162.14885"
       y="225.16737"
       id="text819"
       transform="rotate(-38.049423)"><tspan
         sodipodi:role="line"
         id="tspan817"
         x="-162.14885"
         y="225.16737"
         style="fill:#323232;fill-opacity:1;stroke-width:0.26458332">Constant</tspan></text>
    <path
       inkscape:connector-curvature="0"
       style="fill:#467186;fill-opacity:1;stroke-width:0.07156484"
       d="m 12.987101,279.06661 c -0.293164,-0.21499 -0.766831,-0.32247 -1.421214,-0.32247 H 4.7561891 c -0.5385828,0 -0.9578067,0.0718 -1.257671,0.21498 -0.3000039,0.14344 -0.4498665,0.46218 -0.4498665,0.95657 0,0.46585 0.1413472,0.80799 0.4243194,1.02642 0.2827628,0.21866 0.7106424,0.32783 1.2832181,0.32783 H 10.22641 c -0.8589002,1.14654 -1.6001847,2.29842 -2.2238548,3.45553 -0.6237403,1.15724 -1.1435469,2.28579 -1.5592808,3.38567 -0.415873,1.10001 -0.7157372,2.04396 -0.899802,2.83214 -0.1840648,0.78832 -0.2760624,1.4117 -0.2760624,1.87014 0,0.59484 0.1260607,1.04439 0.3783206,1.3489 0.2521208,0.30443 0.5861171,0.45682 1.0019907,0.45682 0.4361849,0 0.7855382,-0.14161 1.0480593,-0.42454 0.2623118,-0.28292 0.4652227,-0.79001 0.6083842,-1.52089 0.061355,-0.3152 0.1329008,-0.7702 0.2147074,-1.36503 0.081807,-0.59463 0.1567028,-1.0783 0.2249675,-1.45097 0.068126,-0.37251 0.1840653,-0.84189 0.3476083,-1.40795 0.3885116,-1.2825 0.8161812,-2.36806 1.283218,-3.25668 0.466828,-0.88841 0.920254,-1.63184 1.359859,-2.23026 0.439676,-0.59822 0.831538,-1.14471 1.175865,-1.63909 0.344118,-0.49439 0.516317,-0.89208 0.516317,-1.19305 6.9e-5,-0.4944 -0.146582,-0.84909 -0.439606,-1.06407 z"
       id="path2190" />
  </g>
</svg>
